HIERARCHY
ROOT Bip001_Pelvis
{
  OFFSET 7.937 94.8971 -8.5489
  CHANNELS 6 Xposition Yposition Zposition Zrotation Xrotation Yrotation
  JOINT Bip001_Spine
  {
    OFFSET 1.44608e-005 10.4157 -0.0118244
    CHANNELS 3 Zrotation Xrotation Yrotation
    JOINT Bip001_L_Thigh
    {
      OFFSET 11.2582 -10.4157 0.0118432
      CHANNELS 3 Zrotation Xrotation Yrotation
      JOINT Bip001_L_Calf
      {
        OFFSET -0.720717 -44.8687 0.366937
        CHANNELS 3 Zrotation Xrotation Yrotation
        JOINT Bip001_L_Foot
        {
          OFFSET -0.664439 -41.3745 -3.62995
          CHANNELS 3 Zrotation Xrotation Yrotation
          JOINT Bip001_L_Toe0
          {
            OFFSET 0.0541047 -10.4146 13.4033
            CHANNELS 3 Zrotation Xrotation Yrotation
            End Site
            {
              OFFSET -1.04503e-005 0 7.70137
            }
          }
        }
      }
    }
    JOINT Bip001_R_Thigh
    {
      OFFSET -11.2582 -10.4156 0.0118122
      CHANNELS 3 Zrotation Xrotation Yrotation
      JOINT Bip001_R_Calf
      {
        OFFSET 0.72059 -44.8687 0.36676
        CHANNELS 3 Zrotation Xrotation Yrotation
        JOINT Bip001_R_Foot
        {
          OFFSET 0.664321 -41.3745 -3.62979
          CHANNELS 3 Zrotation Xrotation Yrotation
          JOINT Bip001_R_Toe0
          {
            OFFSET -0.05417 -10.4146 13.4033
            CHANNELS 3 Zrotation Xrotation Yrotation
            End Site
            {
              OFFSET -1.04873e-005 0 7.70137
            }
          }
        }
      }
    }
    JOINT Bip001_Spine1
    {
      OFFSET 1.90638e-005 14.8539 1.10727
      CHANNELS 3 Zrotation Xrotation Yrotation
      JOINT Bip001_Spine2
      {
        OFFSET 2.28934e-005 14.7848 -1.7233
        CHANNELS 3 Zrotation Xrotation Yrotation
        JOINT Bip001_Neck
        {
          OFFSET 2.24514e-005 15.6905 -0.498826
          CHANNELS 3 Zrotation Xrotation Yrotation
          JOINT Bip001_L_Clavicle
          {
            OFFSET 6.17691 -0.000591152 0.00852867
            CHANNELS 3 Zrotation Xrotation Yrotation
            JOINT Bip001_L_UpperArm
            {
              OFFSET 11.773 -0.0611878 0.00197697
              CHANNELS 3 Zrotation Xrotation Yrotation
              JOINT Bip001_L_Forearm
              {
                OFFSET 26.4515 0.0817568 -2.19579
                CHANNELS 3 Zrotation Xrotation Yrotation
                JOINT Bip001_L_Hand
                {
                  OFFSET 32.8677 0.156744 1.67112
                  CHANNELS 3 Zrotation Xrotation Yrotation
                  JOINT Bip001_L_Finger0
                  {
                    OFFSET 6.16268 -2.25226 6.01674
                    CHANNELS 3 Zrotation Xrotation Yrotation
                    End Site
                    {
                      OFFSET 4.30499 -1.46662 0.618148
                    }
                  }
                  JOINT Bip001_L_Finger1
                  {
                    OFFSET 11.2957 -0.718374 -0.201963
                    CHANNELS 3 Zrotation Xrotation Yrotation
                    End Site
                    {
                      OFFSET 6.31952 -0.405163 -0.0802303
                    }
                  }
                }
              }
            }
          }
          JOINT Bip001_R_Clavicle
          {
            OFFSET -6.17691 -0.000574027 0.00851165
            CHANNELS 3 Zrotation Xrotation Yrotation
            JOINT Bip001_R_UpperArm
            {
              OFFSET -11.773 -0.0611516 0.00194365
              CHANNELS 3 Zrotation Xrotation Yrotation
              JOINT Bip001_R_Forearm
              {
                OFFSET -26.4514 0.0822334 -2.19736
                CHANNELS 3 Zrotation Xrotation Yrotation
                JOINT Bip001_R_Hand
                {
                  OFFSET -32.8677 0.156817 1.67144
                  CHANNELS 3 Zrotation Xrotation Yrotation
                  JOINT Bip001_R_Finger0
                  {
                    OFFSET -6.1627 -2.25224 6.0167
                    CHANNELS 3 Zrotation Xrotation Yrotation
                    End Site
                    {
                      OFFSET -4.30499 -1.46662 0.618134
                    }
                  }
                  JOINT Bip001_R_Finger1
                  {
                    OFFSET -11.2958 -0.718344 -0.201994
                    CHANNELS 3 Zrotation Xrotation Yrotation
                    End Site
                    {
                      OFFSET -6.31952 -0.405146 -0.0802475
                    }
                  }
                }
              }
            }
          }
          JOINT Bip001_Head
          {
            OFFSET 1.11782e-005 11.4912 2.09908
            CHANNELS 3 Zrotation Xrotation Yrotation
            End Site
            {
              OFFSET 2.95144e-005 21.2823 -2.83069e-005
            }
          }
        }
      }
    }
  }
}
MOTION
Frames:	13
Frame Time:	0.04
7.66366 95.5023 -8.48595 -0.0251633 -0.555367 4.99917 -0.0342575 1.85054 0.124497 5.31328 -10.1115 7.07437 -1.00633 14.9125 -2.57222 -2.82464 -5.3718 -0.436575 0.684585 -9.86547 0.24553 -8.03185 -6.22498 -1.21081 0.685717 14.4005 -0.165083 1.63461 -8.40783 -11.0299 -1.26444 -11.4507 0.881698 -0.266609 3.70847 0.214508 -0.267125 3.70847 0.214506 0.395902 11.8912 -1.69661 -30.8686 -6.23967 -13.7536 -46.7521 42.3037 3.2974 13.2457 2.10671 -24.5767 -3.41495 -0.313465 -1.5479 -1.59028e-015 3.18055e-015 3.18055e-015 -0 -3.18056e-015 -0 36.9088 -2.5806 18.117 50.8801 40.8086 -21.1498 -1.70199 -20.402 22.3007 17.1845 -0.884786 -14.4409 1.59028e-015 3.18055e-015 -0 1.59028e-015 0 3.18055e-015 -1.86707 13.3292 -0.915229 
7.64118 95.5019 -8.48171 -0.0961739 -0.614983 4.76548 -0.0301633 1.85054 0.124497 5.41973 -10.0481 7.07236 -1.03609 14.9925 -2.48377 -2.83923 -5.46325 -0.31435 0.674952 -9.85522 0.269674 -7.93419 -6.19834 -1.14547 0.651028 14.3449 -0.146371 1.65829 -8.34515 -10.8946 -1.27417 -11.4506 0.908728 -0.245626 3.70222 0.242166 -0.245627 3.70223 0.242167 0.400337 11.9094 -1.71649 -30.8709 -6.26158 -13.7673 -46.6505 42.3887 3.13998 13.2112 2.15219 -24.5647 -3.40687 -0.293691 -1.51257 -3.18055e-015 -3.18055e-015 3.18055e-015 -6.36111e-015 -6.36111e-015 3.18055e-015 37.0645 -2.49352 18.2618 48.5938 40.0004 -18.9138 -1.38658 -19.6548 22.1438 17.1636 -1.052 -13.9926 1.59028e-015 9.54166e-015 -0 0 9.54167e-015 -0 -1.92302 13.3364 -0.902846 
7.65231 95.5001 -8.49472 -0.128359 -0.642137 4.61602 -0.0373018 1.8387 0.162587 5.46223 -10.023 7.00614 -1.06402 15.0535 -2.3465 -2.8315 -5.51227 -0.278433 0.677451 -9.85386 0.267953 -7.93526 -6.19193 -1.2236 0.6834 14.3241 -0.107178 1.68053 -8.30792 -10.7756 -1.30201 -11.4505 0.944543 -0.265926 3.67707 0.318452 -0.265926 3.67706 0.318455 0.555968 11.9708 -1.79598 -30.9523 -6.27471 -13.9672 -46.5683 42.271 2.96519 13.1367 1.90861 -24.6438 -3.40239 -0.327345 -1.63353 1.59028e-015 0 -0 3.18055e-015 0 -1.59028e-015 37.2743 -2.27969 18.6775 46.0858 39.3554 -16.706 -1.31796 -19.0521 23.329 17.0889 -1.05574 -15.2151 -3.18055e-015 -6.36111e-015 -4.77083e-015 -3.18055e-015 -6.36111e-015 -1.59028e-015 -2.01947 13.3082 -0.88941 
7.67826 95.5 -8.52353 -0.146217 -0.64527 4.61457 -0.0306522 1.8095 0.193128 5.45646 -10.0314 7.04285 -1.06065 15.0959 -2.4174 -2.79876 -5.51571 -0.262637 0.676491 -9.85633 0.261732 -7.94728 -6.14572 -1.35791 0.638531 14.2715 -0.186009 1.81393 -8.2807 -10.5998 -1.36454 -11.4504 0.979401 -0.259554 3.61859 0.378781 -0.259554 3.6186 0.378782 0.317847 11.8126 -1.693 -30.6651 -6.15201 -13.8243 -46.5164 42.3347 2.58891 13.2706 2.05798 -24.8353 -3.26786 -0.280618 -1.5066 -1.59028e-015 -1.27222e-014 3.18055e-015 5.29669e-031 -9.54167e-015 3.18055e-015 37.1525 -2.09296 18.9062 44.8023 39.564 -15.2485 -2.52956 -17.5143 26.6944 15.9084 -0.544659 -17.227 -2.64834e-031 3.18055e-015 4.77083e-015 3.18055e-015 -3.18056e-015 -0 -1.88289 13.5321 -0.921441 
7.73293 95.5022 -8.56944 -0.110509 -0.603732 4.80391 -0.0658567 1.76646 0.241495 5.39432 -10.0823 7.02898 -1.03892 15.0678 -2.47372 -2.75518 -5.43385 -0.391782 0.67125 -9.86476 0.230852 -8.00553 -6.1019 -1.22972 0.721065 14.244 -0.443823 1.88192 -8.2815 -10.7103 -1.40491 -11.443 0.98405 -0.334495 3.53225 0.476402 -0.334493 3.53224 0.476397 0.48549 11.677 -1.73585 -30.7458 -6.02798 -13.8239 -46.7833 42.1516 2.79495 13.4637 1.28531 -25.5286 -3.27919 -0.27477 -1.31461 3.18055e-015 -3.18055e-015 1.59028e-015 0 3.18056e-015 -0 36.7788 -1.94374 19.0296 43.9552 41.5036 -14.2925 -6.89766 -14.0072 31.6192 15.0652 0.0271718 -17.7977 -4.41391e-032 3.18055e-015 7.95139e-016 -1.59028e-015 -3.18056e-015 1.59028e-015 -2.00795 13.6872 -0.854171 
7.77522 95.4893 -8.59428 -0.302625 -0.502315 5.23236 -0.0590951 1.67934 0.277871 5.54382 -10.4005 7.11098 -0.996168 15.4618 -2.8653 -2.67236 -5.55459 -0.517322 0.668079 -9.87047 0.212091 -7.84131 -5.92027 -2.23839 0.474594 14.0289 -0.12268 1.9507 -8.17041 -10.449 -1.34648 -11.4629 0.981233 -0.315471 3.35794 0.549029 -0.315471 3.35795 0.54903 0.394961 11.5842 -1.65161 -30.7336 -5.89646 -13.8462 -46.375 42.2586 2.48359 13.4413 0.908724 -26.0336 -3.35838 -0.268201 -1.7196 4.77083e-015 -9.54166e-015 -1.59028e-015 3.18055e-015 -6.36111e-015 -0 36.3208 -1.92312 19.1704 42.8013 42.752 -13.0808 -11.4447 -11.054 38.5703 11.7926 1.7458 -16.9626 -2.20695e-032 3.18055e-015 3.97569e-016 0 3.18056e-015 -0 -2.06562 13.7433 -0.785702 
7.78 95.4929 -8.45226 -0.151418 -0.997634 5.50504 -0.128884 1.71361 0.373047 5.55024 -9.78747 8.11833 -0.829707 15.2957 -3.90156 -2.62088 -5.49672 -0.891212 0.663952 -9.87886 0.187109 -7.7825 -5.28229 -2.01093 0.395028 14.033 -0.268757 1.9774 -8.31995 -10.7599 -1.33786 -11.4514 0.92897 -0.454949 3.42575 0.744078 -0.45495 3.42576 0.74408 0.39432 11.3252 -1.55141 -30.7801 -5.60887 -13.8198 -45.6976 42.1974 1.96336 13.3666 0.836958 -26.4965 -3.33736 -0.261908 -1.91301 -1.59028e-015 -9.54166e-015 -1.59028e-015 -1.59028e-015 -9.54167e-015 -1.59028e-015 35.4549 -1.87607 19.1622 40.5009 41.5783 -10.2265 -17.0865 -6.89645 46.8214 7.49226 3.13464 -14.7671 0 0 -0 3.18055e-015 -3.18056e-015 -7.95139e-016 -2.32984 13.648 -0.600666 
8.07872 95.4679 -8.52464 0.28645 -0.468852 6.32192 -0.274635 1.55043 0.394605 4.73331 -10.1386 7.77892 -0.439593 14.9165 -4.23877 -2.57464 -5.16748 -1.04754 0.659853 -9.89714 0.150972 -8.5426 -5.62483 -2.95458 0.655792 14.5495 -0.0969559 2.03459 -8.69086 -10.8278 -1.34926 -11.4387 0.879934 -0.743457 3.09837 0.789716 -0.743457 3.09837 0.789717 -0.0253937 10.8503 -1.1454 -30.4923 -4.99634 -13.8891 -44.8587 41.0045 1.07692 13.3808 2.05838 -26.4885 -3.60635 -0.160101 -2.63075 0 0 -3.18055e-015 1.76556e-031 3.18056e-015 -3.18055e-015 34.9701 -1.7719 18.8449 37.1975 39.2792 -5.99731 -21.7085 -4.40691 56.4119 2.96724 3.86664 -12.2073 1.59028e-014 -2.38542e-015 -1.59028e-015 9.54166e-015 -3.97569e-015 7.95139e-016 -2.11156 13.6475 -0.432987 
8.06887 95.4596 -8.65622 0.0432168 -0.605962 6.31827 -0.304672 1.48544 0.629506 5.12595 -10.2868 7.42689 -0.718703 15.3901 -3.79194 -2.46 -5.28517 -1.26567 0.652682 -9.91088 0.0930029 -8.10918 -5.45021 -1.92456 0.689044 14.3491 -0.626071 1.87866 -8.4541 -11.4694 -1.2028 -11.4479 0.785406 -0.791139 2.96659 1.26112 -0.79114 2.96659 1.26112 -0.158918 10.5554 -0.903387 -30.4997 -4.52132 -14.1628 -44.2403 41.0901 1.07916 13.6509 1.86198 -27.0572 -3.48299 -0.191205 -2.28196 3.18055e-015 9.54166e-015 -1.59028e-015 7.94503e-031 9.54167e-015 -4.77083e-015 33.9777 -1.76177 18.8327 33.089 35.2481 0.0464353 -28.0649 -0.623946 65.7149 -1.98576 4.41885 -9.03094 9.54166e-015 -7.95139e-016 -3.97569e-015 6.36111e-015 -1.59028e-015 -5.56597e-015 -2.33984 13.1435 -0.178395 
8.10102 95.4555 -8.71138 -0.0541451 -0.462517 6.41361 -0.359161 1.38414 0.844513 5.22529 -10.481 7.65241 -0.635047 15.5556 -4.11459 -2.41857 -5.31248 -1.46176 0.65068 -9.91765 0.0657695 -7.97153 -5.45878 -1.57006 0.773883 14.2668 -1.04686 1.82012 -8.36314 -11.723 -1.13002 -11.4619 0.769757 -0.896347 2.76173 1.69182 -0.896344 2.76172 1.69181 -0.585564 9.93741 -0.487249 -30.0476 -3.76461 -14.2835 -43.7131 40.7813 0.649822 14.0422 2.15611 -27.2135 -3.58092 -0.229179 -2.30449 1.76556e-031 6.36111e-015 -1.59028e-015 3.18055e-015 0 -0 32.6262 -1.50532 18.9801 30.2017 30.3077 6.5807 -34.7276 1.40225 73.7926 -8.21628 6.35849 -6.82739 3.18055e-015 -4.77083e-015 -3.18055e-015 6.36111e-015 -7.95139e-015 -0 -2.23096 12.9118 0.0337792 
8.10011 95.4399 -8.68987 -0.209972 -0.404902 7.04255 -0.364502 1.22586 0.968542 5.32752 -10.6936 6.49853 -0.859905 15.8877 -3.7151 -2.3474 -5.40801 -1.41011 0.653018 -9.92045 0.0651751 -7.78846 -5.10778 -2.49788 0.585149 14.1161 -0.779616 1.78388 -8.33851 -11.7484 -1.04093 -11.4818 0.737204 -0.897063 2.44417 1.93959 -0.897062 2.44417 1.93959 -1.4295 10.4267 0.0717862 -29.6608 -3.73398 -15.3569 -43.1666 40.3595 0.900501 14.4848 2.94224 -27.3861 -3.57463 -0.150918 -2.31764 3.18055e-015 -3.18055e-015 -0 -8.82782e-032 3.18056e-015 1.59028e-015 31.5597 -1.92694 20.533 26.8101 25.8333 14.5357 -39.8285 2.32761 78.6848 -14.8231 8.45161 -5.77065 -2.64834e-031 4.77083e-015 3.18055e-015 -5.29669e-031 4.77083e-015 6.36111e-015 -1.86951 12.0326 0.131066 
8.21251 95.4399 -8.598 -0.232728 -0.513881 7.07115 -0.405701 1.19745 1.26357 5.2444 -10.5693 6.19463 -0.76702 15.9755 -3.81229 -2.32491 -5.52548 -1.36967 0.660079 -9.9233 0.0650685 -7.8157 -4.78375 -3.07989 0.580571 13.9582 -0.595592 1.69643 -8.26207 -11.6508 -0.909278 -11.5124 0.726396 -0.971596 2.38422 2.53157 -0.971598 2.38422 2.53157 -1.89242 9.06329 0.419588 -29.5344 -2.41605 -14.7578 -42.0362 40.5705 0.148442 14.6025 2.90748 -27.4372 -3.61353 -0.0163467 -2.32554 0 3.18055e-015 -0 -8.82782e-032 3.18056e-015 1.59028e-015 29.6084 -1.12481 20.4619 23.4813 22.584 22.9419 -45.442 2.41421 80.4407 -22.0157 10.0845 -5.3605 -6.36111e-015 0 3.18055e-015 -3.18055e-015 0 6.36111e-015 -1.96153 12.6067 0.358727 
8.30944 95.4326 -8.5138 -0.239785 -0.498914 7.2893 -0.441272 1.11782 1.58252 5.11028 -10.563 5.68776 -0.696511 16.0666 -3.91954 -2.29392 -5.61224 -1.32523 0.66366 -9.92625 0.0646173 -7.86589 -4.51143 -3.66752 0.583698 13.8668 -0.569993 1.6597 -8.26651 -11.6042 -0.820418 -11.5286 0.71556 -1.03722 2.22133 3.17029 -1.03749 2.22133 3.17028 -2.50521 8.26783 0.772057 -29.2471 -1.47081 -14.7811 -41.0513 40.619 -0.423888 14.5631 3.05402 -27.2009 -3.66989 -0.0265449 -2.22182 3.18055e-015 -3.18055e-015 -0 8.82782e-032 -3.18056e-015 1.59028e-015 27.4562 -0.817291 20.9147 21.0142 19.6118 30.6359 -49.4362 2.27727 79.9041 -27.3246 11.4499 -5.24395 -4.77083e-015 -9.54166e-015 -3.18055e-015 -7.95139e-015 -6.36111e-015 3.18055e-015 -1.9401 12.6662 0.490256 
